<svg width="22" height="26" viewBox="0 0 22 26" fill="none" xmlns="http://www.w3.org/2000/svg">
<path d="M13.7023 11.4404C13.7023 10.7442 13.4257 10.0766 12.9334 9.58427C12.4411 9.09199 11.7735 8.81543 11.0773 8.81543C10.3811 8.81543 9.7134 9.09199 9.22112 9.58427C8.72883 10.0766 8.45227 10.7442 8.45227 11.4404C8.45227 12.1366 8.72883 12.8043 9.22112 13.2966C9.7134 13.7889 10.3811 14.0654 11.0773 14.0654C11.7735 14.0654 12.4411 13.7889 12.9334 13.2966C13.4257 12.8043 13.7023 12.1366 13.7023 11.4404ZM21.5773 11.4404C21.5773 16.4699 16.1575 21.9684 13.1055 24.6669C12.5475 25.1653 11.8255 25.4408 11.0773 25.4408C10.3291 25.4408 9.60707 25.1653 9.04902 24.6669C5.99702 21.9684 0.577271 16.4699 0.577271 11.4404C0.57727 10.0615 0.848861 8.69617 1.37654 7.42225C1.90421 6.14833 2.67763 4.99082 3.65265 4.01581C4.62766 3.04079 5.78518 2.26737 7.05909 1.73969C8.33301 1.21202 9.69839 0.94043 11.0773 0.94043C12.4562 0.94043 13.8215 1.21202 15.0954 1.73969C16.3694 2.26737 17.5269 3.04079 18.5019 4.01581C19.4769 4.99082 20.2503 6.14833 20.778 7.42225C21.3057 8.69617 21.5773 10.0615 21.5773 11.4404ZM19.8273 11.4404C19.8273 9.11978 18.9054 6.89419 17.2645 5.25324C15.6235 3.6123 13.3979 2.69043 11.0773 2.69043C8.75663 2.69043 6.53103 3.6123 4.89009 5.25324C3.24914 6.89419 2.32727 9.11978 2.32727 11.4404C2.32727 13.3794 3.40352 15.6317 5.07477 17.8857C6.70927 20.0872 8.72702 22.0454 10.2075 23.3562C10.4457 23.5721 10.7558 23.6917 11.0773 23.6917C11.3988 23.6917 11.7088 23.5721 11.947 23.3562C13.4275 22.0454 15.447 20.0889 17.0798 17.8857C18.751 15.6317 19.8273 13.3794 19.8273 11.4404Z" fill="#fff"/>
</svg>
